<svg xmlns="http://www.w3.org/2000/svg" width="466" height="392" viewBox="0 0 466 392" fill="none"><g clip-path="url(#clip0)"><path d="M276.349 378.122C276.349 385.767 229.133 391.96 170.789 392H170.259C141.78 392 115.918 390.532 96.8621 388.149C96.0465 388.04 95.2422 387.938 94.4551 387.829C91.2154 387.401 88.1866 386.938 85.3975 386.458C72.0677 384.133 64.168 381.247 64.168 378.122C64.168 375.591 69.3356 373.226 78.3647 371.18C83.1331 370.1 88.9738 369.118 95.7042 368.249C96.942 368.084 98.212 367.927 99.5144 367.781C118.286 365.581 143.08 364.244 170.259 364.244C175.54 364.244 180.736 364.296 185.813 364.393C237.027 365.375 276.349 371.146 276.349 378.122Z" fill="#C0C0C0"></path><path d="M465.509 208.061H308.375V288.728H465.509V208.061Z" fill="#F2F2F2"></path><path d="M270.074 0.492188H112.94V81.1589H270.074V0.492188Z" fill="#F2F2F2"></path><path d="M270.565 81.6504H112.449V0H270.565V81.6504ZM113.431 80.6667H269.583V0.983738H113.431V80.6667Z" fill="#DB9E29"></path><path d="M465.509 0.492188H308.375V81.1589H465.509V0.492188Z" fill="#F2F2F2"></path><path d="M270.074 104.276H112.94V184.943H270.074V104.276Z" fill="#F2F2F2"></path><path d="M465.509 104.276H308.375V184.943H465.509V104.276Z" fill="#F2F2F2"></path><path d="M270.074 208.061H112.94V288.728H270.074V208.061Z" fill="#F2F2F2"></path><path d="M252.966 288.561C246.581 287.478 240.44 286.547 234.544 285.769L236.875 281.242C236.089 280.969 232.636 283.561 232.636 283.561L235.695 270.421C231.742 270.899 229.732 284.316 229.732 284.316L225.315 279.779L227.454 284.879C211.943 283.001 196.338 282.017 180.714 281.933L182.709 278.058C181.923 277.785 178.47 280.377 178.47 280.377L181.529 267.237C177.576 267.714 175.566 281.132 175.566 281.132L171.15 276.595L173.414 281.997C164.433 282.146 155.465 282.756 146.546 283.825C148.564 277.789 155.419 272.049 155.419 272.049C150.184 273.608 147.438 276.222 146.003 278.658C145.875 266.204 147.942 253.825 152.11 242.091C152.11 242.091 141.289 265.677 142.67 281.509L142.835 284.321C133.662 285.636 130.053 288.728 130.053 288.728L252.966 288.561Z" fill="#3F3D56"></path><path d="M177.577 145.207C187.169 145.207 194.944 137.419 194.944 127.811C194.944 118.204 187.169 110.416 177.577 110.416C167.986 110.416 160.211 118.204 160.211 127.811C160.211 137.419 167.986 145.207 177.577 145.207Z" fill="#FF6584"></path><path d="M363.935 237.916L361.899 236.284L373.301 226.087H402.212V235.061L383.481 247.705L363.935 237.916Z" fill="#3F3D56"></path><path d="M407.484 231.807V226.291H403.645V227.642L402.213 226.087L392.847 236.284L389.182 238.732L383.5 280.318L392.069 288.902H411.985V236.692L407.484 231.807Z" fill="#CCCCCC"></path><path d="M392.847 236.284H361.899V288.902H392.847V236.284Z" fill="#F2F2F2"></path><path d="M379.612 276.054H373.912V288.902H379.612V276.054Z" fill="#CCCCCC"></path><path d="M367.803 279.724V277.685H365.36V279.724H367.6H367.803Z" fill="#3F3D56"></path><path d="M367.6 281.356H365.36V283.396H367.803V281.356H367.6Z" fill="#3F3D56"></path><path d="M371.875 277.685H369.432V279.725H371.875V277.685Z" fill="#3F3D56"></path><path d="M371.875 281.356H369.432V283.396H371.875V281.356Z" fill="#3F3D56"></path><path d="M384.499 279.724V277.685H382.056V279.724H384.295H384.499Z" fill="#3F3D56"></path><path d="M384.295 281.356H382.056V283.396H384.499V281.356H384.295Z" fill="#3F3D56"></path><path d="M388.571 277.685H386.127V279.725H388.571V277.685Z" fill="#3F3D56"></path><path d="M388.571 281.356H386.127V283.396H388.571V281.356Z" fill="#3F3D56"></path><path d="M401.601 238.935V236.896H399.158V238.935H401.398H401.601Z" fill="#3F3D56"></path><path d="M401.398 240.567H399.158V242.607H401.601V240.567H401.398Z" fill="#3F3D56"></path><path d="M405.674 236.896H403.23V238.935H405.674V236.896Z" fill="#3F3D56"></path><path d="M405.674 240.567H403.23V242.606H405.674V240.567Z" fill="#3F3D56"></path><path d="M401.601 250.357V248.317H399.158V250.357H401.398H401.601Z" fill="#3F3D56"></path><path d="M401.398 251.988H399.158V254.028H401.601V251.988H401.398Z" fill="#3F3D56"></path><path d="M405.674 248.317H403.23V250.356H405.674V248.317Z" fill="#3F3D56"></path><path d="M405.674 251.988H403.23V254.027H405.674V251.988Z" fill="#3F3D56"></path><path d="M401.601 261.778V259.738H399.158V261.778H401.398H401.601Z" fill="#3F3D56"></path><path d="M401.398 263.409H399.158V265.448H401.601V263.409H401.398Z" fill="#3F3D56"></path><path d="M405.674 259.738H403.23V261.777H405.674V259.738Z" fill="#3F3D56"></path><path d="M405.674 263.409H403.23V265.449H405.674V263.409Z" fill="#3F3D56"></path><path d="M401.601 273.198V271.159H399.158V273.198H401.398H401.601Z" fill="#3F3D56"></path><path d="M401.398 274.83H399.158V276.87H401.601V274.83H401.398Z" fill="#3F3D56"></path><path d="M405.674 271.159H403.23V273.198H405.674V271.159Z" fill="#3F3D56"></path><path d="M405.674 274.83H403.23V276.87H405.674V274.83Z" fill="#3F3D56"></path><path d="M388.978 238.936H365.36V243.83H388.978V238.936Z" fill="#3F3D56"></path><path d="M388.978 248.725H365.36V253.62H388.978V248.725Z" fill="#3F3D56"></path><path d="M388.978 258.514H365.36V263.409H388.978V258.514Z" fill="#3F3D56"></path><path d="M388.978 268.304H365.36V273.198H388.978V268.304Z" fill="#3F3D56"></path><path d="M177.676 234.928H198.403V229.917H209.839V234.928H231.282V257.123H209.839V285.044H198.403V257.123H177.676L166.955 244.952L177.676 234.928Z" fill="#3F3D56"></path><path d="M238.647 184.943H237.665C237.665 172.159 232.595 159.898 223.57 150.858C214.546 141.819 202.306 136.74 189.543 136.74C176.78 136.74 164.54 141.819 155.515 150.858C146.491 159.898 141.421 172.159 141.421 184.943H140.438C140.443 171.901 145.618 159.394 154.826 150.173C164.035 140.952 176.522 135.772 189.543 135.772C202.563 135.772 215.051 140.952 224.259 150.173C233.468 159.394 238.643 171.901 238.647 184.943Z" fill="#3F3D56"></path><path d="M166.153 135.51L164.898 135.513L164.992 185.168L166.247 185.166L166.153 135.51Z" fill="#3F3D56"></path><path d="M177.746 141.817C177.858 159.18 165.689 173.335 165.689 173.335C165.689 173.335 153.338 159.339 153.226 141.976C153.113 124.613 165.282 110.458 165.282 110.458C165.282 110.458 177.633 124.454 177.746 141.817Z" fill="#DB9E29"></path><path opacity="0.1" d="M177.746 141.817C177.858 159.18 165.689 173.335 165.689 173.335C165.689 173.335 153.338 159.339 153.226 141.976C153.113 124.613 165.282 110.458 165.282 110.458C165.282 110.458 177.633 124.454 177.746 141.817Z" fill="black"></path><path d="M149.838 135.541L148.583 135.543L148.677 185.199L149.932 185.196L149.838 135.541Z" fill="#3F3D56"></path><path d="M161.431 141.848C161.544 159.211 149.375 173.366 149.375 173.366C149.375 173.366 137.024 159.37 136.911 142.007C136.799 124.644 148.968 110.489 148.968 110.489C148.968 110.489 161.319 124.485 161.431 141.848Z" fill="#DB9E29"></path><path d="M233.406 145.96H232.412V185.27H233.406V145.96Z" fill="#3F3D56"></path><path d="M242.575 150.97C242.638 164.716 232.983 175.904 232.983 175.904C232.983 175.904 223.226 164.805 223.163 151.059C223.1 137.314 232.754 126.125 232.754 126.125C232.754 126.125 242.512 137.224 242.575 150.97Z" fill="#DB9E29"></path><path d="M384.709 180.048C403.57 180.048 418.86 164.732 418.86 145.839C418.86 126.947 403.57 111.631 384.709 111.631C365.848 111.631 350.558 126.947 350.558 145.839C350.558 164.732 365.848 180.048 384.709 180.048Z" fill="#3F3D56"></path><path d="M388.124 133.104V147.423H367.343L363.503 152.038L363.941 147.423H362.074V133.104H388.124Z" fill="#DB9E29"></path><path opacity="0.1" d="M388.124 138.036H378.752V147.424H388.124V138.036Z" fill="black"></path><path d="M380.817 140.104H406.867V154.424H404.999L405.438 159.039L401.599 154.424H380.817V140.104Z" fill="#DB9E29"></path><path opacity="0.1" d="M363.662 154.347C366.82 154.347 369.38 154.096 369.38 153.788C369.38 153.479 366.82 153.229 363.662 153.229C360.504 153.229 357.944 153.479 357.944 153.788C357.944 154.096 360.504 154.347 363.662 154.347Z" fill="black"></path><path opacity="0.1" d="M405.438 161.902C409.035 161.902 411.95 161.617 411.95 161.266C411.95 160.914 409.035 160.629 405.438 160.629C401.841 160.629 398.925 160.914 398.925 161.266C398.925 161.617 401.841 161.902 405.438 161.902Z" fill="black"></path><path d="M404.096 10.5172H381.529C380.44 10.5172 379.384 10.8883 378.533 11.5695C377.683 12.2508 377.089 13.2016 376.85 14.2657L365.447 64.9276C365.323 65.4802 365.32 66.0533 365.441 66.6069C365.561 67.1604 365.8 67.6809 366.142 68.1319C366.485 68.5828 366.921 68.9534 367.421 69.2175C367.922 69.4816 368.474 69.6329 369.038 69.6608L392.237 70.8057C393.48 70.867 394.702 70.4735 395.675 69.6986C396.649 68.9237 397.308 67.8203 397.53 66.5944L403.998 30.7758L404.479 30.9136L405.717 24.1246L405.222 24.0006L407.027 14.0023C407.104 13.5741 407.086 13.134 406.975 12.7135C406.863 12.293 406.659 11.9024 406.38 11.5696C406.1 11.2367 405.75 10.9699 405.355 10.788C404.961 10.606 404.531 10.5136 404.096 10.5172Z" fill="#3F3D56"></path><path d="M384.5 11.6094H381.866C381.109 11.6094 380.376 11.8685 379.787 12.3438C379.197 12.8191 378.788 13.482 378.627 14.2223L367.682 64.4709C367.619 64.7602 367.619 65.0597 367.682 65.349C367.745 65.6383 367.87 65.9105 368.048 66.1471C368.226 66.3837 368.452 66.579 368.712 66.7198C368.972 66.8606 369.26 66.9435 369.555 66.9629L392.678 68.4809C393.331 68.5238 393.976 68.3245 394.491 67.9211C395.006 67.5178 395.355 66.9386 395.471 66.2941L404.81 14.3573C404.871 14.0212 404.857 13.6758 404.769 13.3456C404.682 13.0155 404.523 12.7085 404.305 12.4465C404.086 12.1844 403.812 11.9736 403.504 11.829C403.195 11.6843 402.858 11.6094 402.517 11.6094H400.018C399.776 11.6094 399.541 11.6892 399.349 11.8366C399.157 11.984 399.019 12.1906 398.956 12.4246C398.9 12.6311 398.778 12.8136 398.609 12.9437C398.44 13.0738 398.232 13.1443 398.018 13.1443H386.155C385.737 13.1443 385.334 12.9862 385.027 12.7016C384.721 12.417 384.532 12.027 384.5 11.6094Z" fill="#DB9E29"></path><path d="M194.672 73.6348C212.721 73.6348 227.352 58.9789 227.352 40.8999C227.352 22.821 212.721 8.16504 194.672 8.16504C176.623 8.16504 161.992 22.821 161.992 40.8999C161.992 58.9789 176.623 73.6348 194.672 73.6348Z" fill="#DB9E29"></path><path d="M223.128 61.4521C216.853 61.4525 202.997 54.997 190.675 47.4366C175.383 38.0548 160.532 25.7922 163.128 21.546C163.862 20.346 165.681 20.0322 168.69 20.5854L168.474 21.7621C166.144 21.3326 164.567 21.4825 164.147 22.1705C163.533 23.1742 164.886 26.0881 170.524 31.256C175.662 35.966 183.04 41.3499 191.298 46.4165C199.556 51.4831 207.697 55.62 214.22 58.0651C221.378 60.7485 224.584 60.6313 225.197 59.6283C225.618 58.9392 225.033 57.4624 223.591 55.576L224.539 54.8487C226.401 57.2848 226.95 59.0525 226.216 60.2529C225.711 61.0775 224.64 61.4521 223.128 61.4521Z" fill="#3F3D56"></path><path d="M190.638 30.7695C194.33 30.7695 197.323 27.7717 197.323 24.0737C197.323 20.3757 194.33 17.3779 190.638 17.3779C186.946 17.3779 183.954 20.3757 183.954 24.0737C183.954 27.7717 186.946 30.7695 190.638 30.7695Z" fill="white"></path><path d="M192.575 65.2436C195.036 65.2436 197.031 63.2451 197.031 60.7798C197.031 58.3145 195.036 56.3159 192.575 56.3159C190.113 56.3159 188.118 58.3145 188.118 60.7798C188.118 63.2451 190.113 65.2436 192.575 65.2436Z" fill="white"></path><path d="M207.92 49.9399C210.381 49.9399 212.377 47.9414 212.377 45.4761C212.377 43.0107 210.381 41.0122 207.92 41.0122C205.459 41.0122 203.464 43.0107 203.464 45.4761C203.464 47.9414 205.459 49.9399 207.92 49.9399Z" fill="white"></path><path d="M466 289.22H307.884V207.569H466L466 289.22ZM308.866 288.236H465.018V208.553H308.866V288.236Z" fill="#DB9E29"></path><path d="M465.018 185.927H306.902V104.276H465.018V185.927ZM307.884 184.943H464.036V105.26H307.884V184.943Z" fill="#DB9E29"></path><path d="M112.032 360.201C114.712 370.127 123.895 376.275 123.895 376.275C123.895 376.275 128.731 366.329 126.05 356.402C123.369 346.476 114.187 340.328 114.187 340.328C114.187 340.328 109.351 350.274 112.032 360.201Z" fill="#3F3D56"></path><path d="M115.971 358.067C123.327 365.24 124.225 376.266 124.225 376.266C124.225 376.266 113.197 375.663 105.841 368.49C98.4854 361.317 97.5869 350.291 97.5869 350.291C97.5869 350.291 108.615 350.894 115.971 358.067Z" fill="#DB9E29"></path><path d="M141.669 221.847L133.83 222.719C133.83 222.719 130.346 238.425 133.83 259.366C137.314 280.306 141.669 301.247 141.669 301.247C141.669 301.247 145.154 369.304 146.896 370.176C148.638 371.049 164.317 376.284 165.188 371.049C166.059 365.814 166.059 246.278 166.059 246.278L178.254 303.864C178.254 303.864 179.996 376.284 183.48 376.284C186.964 376.284 198.288 375.412 198.288 369.304C198.288 363.196 200.901 282.924 200.901 282.924C200.901 282.924 200.03 223.592 196.546 221.847C193.062 220.102 141.669 221.847 141.669 221.847Z" fill="#2F2E41"></path><path d="M148.638 367.559C148.638 367.559 140.798 366.687 139.056 367.559C137.314 368.432 134.701 374.539 139.056 378.029C143.412 381.52 154.735 386.755 158.22 386.755C161.704 386.755 165.188 385.01 165.188 385.01L163.446 370.177L148.638 367.559Z" fill="#2F2E41"></path><path d="M183.48 371.922L184.352 384.137C184.352 384.137 195.675 385.882 196.546 384.137C197.417 382.392 206.128 378.03 206.999 377.157C207.87 376.285 208.741 366.687 203.515 365.814C198.288 364.942 196.546 367.559 196.546 367.559L183.48 371.922Z" fill="#2F2E41"></path><path d="M203.722 118.024C203.722 118.024 222.766 105.757 222.325 97.3288C221.885 88.9011 210.404 62.3282 210.404 62.3282C210.404 62.3282 201.423 43.624 197.852 51.268C194.282 58.912 202.545 67.0488 202.545 67.0488L207.878 93.1158L193.384 106.967L203.722 118.024Z" fill="#F4E6B5"></path><path d="M156.477 100.566C165.137 100.566 172.156 93.5342 172.156 84.8603C172.156 76.1864 165.137 69.1548 156.477 69.1548C147.818 69.1548 140.798 76.1864 140.798 84.8603C140.798 93.5342 147.818 100.566 156.477 100.566Z" fill="#F4E6B5"></path><path d="M148.638 94.4581L151.251 111.036L170.414 107.546C170.414 107.546 169.543 90.968 169.543 89.2229C169.543 87.4779 148.638 94.4581 148.638 94.4581Z" fill="#F4E6B5"></path><path d="M147.767 111.036C147.767 111.036 169.543 105.801 172.156 107.546C174.77 109.291 187.835 111.036 187.835 111.036L202.643 133.722L198.288 162.515C198.288 162.515 197.417 208.759 199.159 216.612C200.901 224.465 210.483 225.337 190.449 227.082C170.414 228.827 166.93 226.21 152.993 229.7C139.056 233.19 127.732 227.955 131.217 224.465C134.701 220.975 140.798 165.133 133.83 159.898C126.861 154.663 124.248 127.614 124.248 127.614C124.248 127.614 147.767 115.399 147.767 111.036Z" fill="#3F3D56"></path><path d="M185.222 113.654L187.835 111.036L193.062 105.801C193.062 105.801 210.047 113.217 209.176 115.835C208.305 118.452 202.643 133.722 202.643 133.722L194.804 136.339L185.222 113.654Z" fill="#3F3D56"></path><path d="M161.949 65.8327L161.788 64.5746C160.723 64.5685 159.663 64.7353 158.65 65.0685C158.547 64.3098 158.613 63.5376 158.844 62.8077C157.815 63.0726 156.835 63.4996 155.94 64.0725L155.306 61.7764L146.598 66.0751C143.473 67.6182 140.177 69.3139 138.39 72.3107C136.398 75.6517 136.745 79.9455 138.107 83.5902C139.468 87.2348 141.731 90.4602 143.545 93.9016C144.234 95.3814 145.061 96.7922 146.017 98.1151C149.303 102.219 155.701 103.049 160.336 100.572C162.046 99.6573 163.6 98.2909 164.304 96.4815C164.724 95.3996 164.82 94.2222 165.096 93.0944C165.669 90.749 166.335 85.9076 168.237 84.4238C169.073 83.7709 170.733 85.9354 171.426 85.1314C173.208 83.0652 172.834 79.8787 171.727 77.3833C170.665 74.8771 169.423 72.451 168.012 70.124C167.414 69.1885 161.93 65.6818 161.949 65.8327Z" fill="#2F2E41"></path><path d="M110.311 148.555C110.311 148.555 89.4058 168.623 92.019 179.093C94.6322 189.563 115.538 220.102 115.538 220.102C115.538 220.102 135.572 230.572 138.185 220.102C140.798 209.632 124.248 212.249 124.248 212.249L111.182 180.838L125.99 159.898L110.311 148.555Z" fill="#F4E6B5"></path><path d="M134.701 129.359L124.248 127.614C124.248 127.614 116.409 136.34 113.796 139.83C111.182 143.32 105.956 152.045 105.956 152.045L124.248 165.133L138.185 150.3L134.701 129.359Z" fill="#3F3D56"></path></g><defs><clipPath id="clip0"><rect width="466" height="392" fill="white"></rect></clipPath></defs></svg>